<svg width="86" height="86" viewBox="0 0 86 86" fill="none" xmlns="http://www.w3.org/2000/svg">
<path d="M85.7 84.2768C85.7 85.0628 85.063 85.6998 84.277 85.6998H1.72299C0.936988 85.6998 0.299988 85.0628 0.299988 84.2768V1.7228C0.299988 0.936805 0.936988 0.299805 1.72299 0.299805H84.276C85.062 0.299805 85.699 0.936805 85.699 1.7228V84.2768H85.7Z" fill="url(#paint0_radial)"/>
<rect x="11" y="11" width="64" height="64" rx="32" fill="url(#paint1_radial)"/>
<path d="M35.3931 57.2236L23.6871 45.5166C22.5411 44.3706 23.0391 42.0996 23.6651 41.4736L25.4711 39.6676C26.6521 38.4866 29.1191 39.1116 29.7101 39.7026L35.8741 45.8616C36.3191 46.3066 37.5431 47.1546 37.5431 47.1546C37.5431 47.1546 38.7711 46.3066 39.2161 45.8616L56.1781 28.8976C57.2201 27.8556 59.8471 27.7676 60.4721 28.3926L62.3831 30.3036C63.7381 31.6586 63.2811 33.6396 62.1001 34.8206L39.6951 57.2266C38.7571 58.1646 36.4351 58.2656 35.3931 57.2236Z" fill="url(#paint2_radial)"/>
<path d="M43.4554 78.8056C43.3289 78.8056 43.2214 78.7602 43.1328 78.6694C43.0443 78.5787 43 78.4685 43 78.3389V65.6806C43 65.538 43.038 65.4213 43.1139 65.3306C43.2024 65.2398 43.3163 65.1944 43.4554 65.1944H48.5413C50.0721 65.1944 51.274 65.5639 52.1469 66.3028C53.0199 67.0417 53.4563 68.1176 53.4563 69.5306C53.4563 70.9306 53.0199 71.9935 52.1469 72.7194C51.274 73.4324 50.0721 73.7889 48.5413 73.7889H45.7517V78.3389C45.7517 78.4815 45.7074 78.5981 45.6188 78.6889C45.5303 78.7667 45.4164 78.8056 45.2772 78.8056H43.4554ZM48.4464 71.6111C49.1802 71.6111 49.7368 71.4361 50.1164 71.0861C50.5086 70.7231 50.7047 70.1981 50.7047 69.5111C50.7047 68.837 50.5149 68.312 50.1354 67.9361C49.7685 67.5602 49.2055 67.3722 48.4464 67.3722H45.7137V71.6111H48.4464Z" fill="white"/>
<path d="M55.9832 78.8056C55.8567 78.8056 55.7492 78.7602 55.6606 78.6694C55.5721 78.5787 55.5278 78.4685 55.5278 78.3389V65.6806C55.5278 65.538 55.5658 65.4213 55.6417 65.3306C55.7302 65.2398 55.8441 65.1944 55.9832 65.1944H60.8983C62.4544 65.1944 63.6689 65.5639 64.5419 66.3028C65.4275 67.0417 65.8703 68.0917 65.8703 69.4528C65.8703 70.3991 65.6489 71.1963 65.2061 71.8444C64.7633 72.4796 64.1434 72.9398 63.3463 73.225L66.098 78.1833C66.136 78.2611 66.1549 78.3324 66.1549 78.3972C66.1549 78.5139 66.1107 78.6111 66.0221 78.6889C65.9462 78.7667 65.8576 78.8056 65.7564 78.8056H64.0105C63.8081 78.8056 63.65 78.7602 63.5361 78.6694C63.4222 78.5657 63.321 78.4361 63.2325 78.2806L60.8034 73.6722H58.2036V78.3389C58.2036 78.4685 58.1593 78.5787 58.0707 78.6694C57.9822 78.7602 57.8683 78.8056 57.7291 78.8056H55.9832ZM60.8414 71.4556C61.6004 71.4556 62.1698 71.287 62.5493 70.95C62.9288 70.6 63.1186 70.0944 63.1186 69.4333C63.1186 68.7722 62.9288 68.2667 62.5493 67.9167C62.1698 67.5537 61.6004 67.3722 60.8414 67.3722H58.2036V71.4556H60.8414Z" fill="white"/>
<path d="M73.4018 79C71.6685 79 70.3212 78.5528 69.3597 77.6583C68.3982 76.7639 67.8921 75.4352 67.8415 73.6722C67.8289 73.2963 67.8225 72.7454 67.8225 72.0194C67.8225 71.2806 67.8289 70.7231 67.8415 70.3472C67.8921 68.6231 68.4108 67.3009 69.3976 66.3806C70.3844 65.4602 71.7192 65 73.4018 65C75.0718 65 76.4001 65.4602 77.387 66.3806C78.3864 67.3009 78.9114 68.6231 78.962 70.3472C78.9874 71.0991 79 71.6565 79 72.0194C79 72.3694 78.9874 72.9204 78.962 73.6722C78.9114 75.4352 78.3991 76.7639 77.4249 77.6583C76.4634 78.5528 75.1224 79 73.4018 79ZM73.4018 76.7444C74.2494 76.7444 74.9199 76.4852 75.4133 75.9667C75.9067 75.4481 76.1724 74.6509 76.2104 73.575C76.2357 72.7972 76.2483 72.2722 76.2483 72C76.2483 71.7019 76.2357 71.1769 76.2104 70.425C76.1724 69.362 75.9004 68.5713 75.3944 68.0528C74.8883 67.5213 74.2241 67.2556 73.4018 67.2556C72.5668 67.2556 71.8963 67.5213 71.3902 68.0528C70.8842 68.5713 70.6185 69.362 70.5932 70.425C70.5805 70.8009 70.5742 71.3259 70.5742 72C70.5742 72.6611 70.5805 73.1861 70.5932 73.575C70.6185 74.638 70.8778 75.4352 71.3712 75.9667C71.8773 76.4852 72.5541 76.7444 73.4018 76.7444Z" fill="white"/>
<defs>
<radialGradient id="paint0_radial" cx="0" cy="0" r="1" gradientUnits="userSpaceOnUse" gradientTransform="translate(43 -6) rotate(90) scale(100)">
<stop stop-color="#EFE954"/>
<stop offset="1" stop-color="#8D6E00"/>
</radialGradient>
<radialGradient id="paint1_radial" cx="0" cy="0" r="1" gradientUnits="userSpaceOnUse" gradientTransform="translate(43 2.75757) rotate(90) scale(85.8182)">
<stop stop-color="#3E3E3E"/>
<stop offset="1" stop-color="#121212"/>
</radialGradient>
<radialGradient id="paint2_radial" cx="0" cy="0" r="1" gradientUnits="userSpaceOnUse" gradientTransform="translate(43.1062 6) rotate(90) scale(83.5 112.044)">
<stop stop-color="#EFE954"/>
<stop offset="1" stop-color="#8D6E00"/>
</radialGradient>
</defs>
</svg>
