<svg width="36" height="36" viewBox="0 0 36 36" fill="none" xmlns="http://www.w3.org/2000/svg">
<circle opacity="0.5" cx="18" cy="17.9995" r="12" fill="#FF0000"/>
<path opacity="0.4" d="M23.303 23.3025C23.1079 23.4976 22.7914 23.498 22.5959 23.3025L19.4143 20.1208C18.2444 18.9509 18.2444 17.0481 19.4143 15.8782L22.5963 12.6962C22.7918 12.5007 23.1082 12.501 23.3034 12.6962C23.4985 12.8914 23.4989 13.2078 23.3034 13.4033L20.1214 16.5853C19.3415 17.3652 19.3415 18.6338 20.1214 19.4137L23.303 22.5954C23.4985 22.7909 23.4982 23.1073 23.303 23.3025Z" fill="white"/>
<path d="M16.5859 20.1208L13.404 23.3028C13.2088 23.498 12.892 23.498 12.6969 23.3028C12.5017 23.1076 12.5017 22.7909 12.6969 22.5957L15.8788 19.4137C16.6588 18.6338 16.6588 17.3652 15.8788 16.5853L12.6969 13.4033C12.5017 13.2082 12.5017 12.8914 12.6969 12.6962C12.892 12.5011 13.2088 12.5011 13.404 12.6962L16.5859 15.8782C17.7558 17.0481 17.7558 18.9509 16.5859 20.1208Z" fill="white"/>
</svg>
