<svg width="969" height="699" viewBox="0 0 969 699" fill="none" xmlns="http://www.w3.org/2000/svg">
<path opacity="0.3" d="M413.332 291.763C413.391 293.068 414.481 294.301 415.773 294.491L467.711 302.533C468.505 310.053 469.678 317.466 471.207 324.749L424.246 348.495C423.084 349.088 422.433 350.594 422.8 351.84L430.976 377.069C431.415 378.302 432.825 379.132 434.117 378.919L486.079 370.474C489.16 377.33 492.572 383.995 496.293 390.472L458.93 427.621C458.006 428.546 457.852 430.171 458.587 431.25L474.181 452.707C474.975 453.739 476.575 454.095 477.736 453.502L524.627 429.341C529.639 434.868 534.912 440.134 540.434 445.128L516.308 492.134C515.715 493.296 516.071 494.897 517.102 495.692L538.515 511.337C539.593 512.072 541.217 511.918 542.141 510.993L579.362 473.429C585.784 477.117 592.42 480.498 599.222 483.546L590.749 535.854C590.536 537.147 591.377 538.558 592.598 538.997L617.779 547.193C619.035 547.561 620.528 546.908 621.121 545.746L644.998 498.373C652.191 499.867 659.515 501.018 666.945 501.8L675.038 554.239C675.24 555.532 676.46 556.623 677.764 556.682C677.764 556.682 685.762 557.014 691 557.014C696.25 557.014 704.26 556.682 704.26 556.682C705.564 556.623 706.796 555.532 706.986 554.239L715.091 501.729C722.497 500.935 729.797 499.772 736.978 498.266L760.891 545.734C761.484 546.897 762.977 547.549 764.233 547.181L789.414 538.985C790.646 538.546 791.476 537.135 791.262 535.842L782.754 483.333C789.509 480.284 796.085 476.916 802.473 473.239L839.859 510.981C840.772 511.906 842.407 512.06 843.485 511.325L864.922 495.704C865.953 494.909 866.308 493.308 865.716 492.145L841.435 444.843C846.898 439.885 852.112 434.654 857.065 429.186L904.276 453.514C905.437 454.107 907.037 453.751 907.831 452.719L923.425 431.25C924.16 430.171 924.006 428.546 923.081 427.621L885.41 390.175C889.084 383.782 892.437 377.187 895.483 370.426L947.883 378.943C949.175 379.156 950.585 378.314 951.024 377.092L959.2 351.852C959.567 350.594 958.916 349.1 957.754 348.507L910.366 324.547C911.86 317.359 913.009 310.053 913.803 302.64L966.227 294.527C967.519 294.325 968.609 293.103 968.668 291.799C968.668 291.799 969 283.781 969 278.526C969 273.272 968.668 265.242 968.668 265.242C968.609 263.937 967.519 262.703 966.227 262.513L913.803 254.4C913.009 246.987 911.86 239.681 910.366 232.493L957.754 208.533C958.916 207.94 959.567 206.434 959.2 205.189L951.024 179.948C950.585 178.714 949.175 177.884 947.883 178.098L895.483 186.614C892.449 179.841 889.084 173.258 885.41 166.865L923.081 129.419C924.006 128.494 924.16 126.869 923.425 125.79L907.831 104.321C907.037 103.289 905.437 102.933 904.276 103.527L857.065 127.854C852.112 122.386 846.898 117.155 841.435 112.197L865.716 64.8948C866.308 63.7324 865.953 62.1311 864.922 61.3364L843.497 45.7153C842.419 44.9799 840.795 45.134 839.871 46.0592L802.484 83.8014C796.109 80.1245 789.532 76.7559 782.778 73.7195L791.286 21.2101C791.5 19.9172 790.658 18.5058 789.438 18.0669L764.245 9.87088C762.988 9.50318 761.495 10.1555 760.903 11.3179L736.99 58.7863C729.82 57.2799 722.521 56.1175 715.115 55.3228L707.021 2.8253C706.82 1.53244 705.599 0.441256 704.296 0.38195C704.296 0.38195 696.273 0.0498031 691.036 0.0498031C685.798 0.0498031 677.787 0.38195 677.787 0.38195C676.484 0.441256 675.251 1.53244 675.062 2.8253L666.968 55.2635C659.55 56.0463 652.227 57.1968 645.046 58.6914L621.168 11.3179C620.576 10.1555 619.083 9.50318 617.827 9.87088L592.634 18.0669C591.401 18.5058 590.572 19.9172 590.785 21.2101L599.258 73.5178C592.456 76.5661 585.832 79.9466 579.409 83.6235L542.188 46.0592C541.276 45.134 539.641 44.9799 538.562 45.7153L517.137 61.3364C516.107 62.1311 515.751 63.7324 516.344 64.8948L540.47 111.901C534.948 116.894 529.663 122.16 524.662 127.688L477.772 103.527C476.611 102.933 475.011 103.289 474.217 104.321L458.622 125.79C457.888 126.869 458.042 128.494 458.966 129.419L496.329 166.569C492.608 173.033 489.195 179.699 486.114 186.555L434.152 178.11C432.861 177.896 431.45 178.738 431.012 179.96L422.835 205.2C422.468 206.458 423.12 207.952 424.281 208.545L471.243 232.291C469.714 239.574 468.553 246.975 467.747 254.495L415.808 262.537C414.517 262.739 413.427 263.961 413.367 265.265C413.367 265.265 413.036 273.295 413.036 278.55C413 283.745 413.332 291.763 413.332 291.763ZM690.763 83.6235C798.29 83.6235 885.458 170.874 885.458 278.502C885.458 386.13 798.29 473.381 690.763 473.381C583.236 473.381 496.068 386.13 496.068 278.502C496.068 170.874 583.236 83.6235 690.763 83.6235Z" fill="white"/>
<path opacity="0.1" d="M690.763 185.745C639.585 185.745 598.096 227.273 598.096 278.5C598.096 329.726 639.585 371.254 690.763 371.254C741.941 371.254 783.43 329.726 783.43 278.5C783.43 227.273 741.941 185.745 690.763 185.745Z" fill="white"/>
<path opacity="0.6" d="M40.3401 468.004C40.3401 466.931 40.3401 466.931 40.3401 466.931C40.3512 465.759 39.4111 464.509 38.2499 464.155L2.9146 453.261C1.75335 452.907 0.890713 451.613 0.990249 450.408L2.66025 435.046C2.81509 433.841 3.94316 432.779 5.14865 432.679L41.988 429.749C43.2046 429.649 44.4432 428.609 44.7529 427.437L55.2705 394.137C55.7018 392.998 55.2816 391.427 54.3415 390.653L25.8742 367.074C24.9342 366.3 24.6356 364.785 25.1996 363.701L32.6537 350.175C33.262 349.124 34.7108 348.571 35.8721 348.948L71.0525 360.35C72.2138 360.726 73.7621 360.239 74.492 359.266L96.954 332.557C97.7835 331.672 97.9936 330.058 97.4296 328.985L80.1545 296.304C79.5905 295.231 79.878 293.705 80.8181 292.931L92.873 283.265C93.8352 282.524 95.3835 282.568 96.3125 283.353L124.437 307.33C125.366 308.116 126.981 308.259 128.031 307.64L158.987 291.526C160.093 291.018 160.9 289.613 160.79 288.407L157.328 251.59C157.218 250.374 158.069 249.091 159.23 248.726L174.05 244.424C175.222 244.114 176.638 244.744 177.191 245.828L194.002 278.764C194.555 279.847 195.992 280.588 197.198 280.423C197.198 280.423 218.687 277.348 230.985 277.348C232.058 277.348 232.058 277.348 232.058 277.348C233.23 277.359 234.48 276.419 234.833 275.258L245.727 239.922C246.081 238.761 247.375 237.899 248.581 237.998L263.942 239.668C265.148 239.823 266.209 240.951 266.309 242.156L269.24 278.996C269.339 280.212 270.379 281.451 271.551 281.761L304.852 292.278C305.991 292.71 307.561 292.289 308.335 291.349L331.914 262.882C332.688 261.942 334.204 261.643 335.287 262.207L348.813 269.662C349.864 270.27 350.417 271.719 350.041 272.88L338.638 308.06C338.262 309.222 338.749 310.77 339.722 311.5L366.431 333.962C367.316 334.791 368.931 335.001 370.003 334.437L402.684 317.151C403.757 316.587 405.283 316.875 406.058 317.815L415.724 329.87C416.465 330.832 416.42 332.38 415.635 333.309L391.669 361.423C390.884 362.352 390.74 363.966 391.359 365.017L407.473 395.984C407.982 397.09 409.386 397.897 410.592 397.787L447.409 394.325C448.626 394.214 449.909 395.066 450.274 396.227L454.576 411.047C454.885 412.219 454.255 413.635 453.171 414.188L420.236 430.998C419.152 431.551 418.411 432.989 418.577 434.195C418.577 434.195 421.652 455.683 421.652 467.982C421.652 469.054 421.652 469.054 421.652 469.054C421.64 470.227 422.581 471.476 423.742 471.83L459.077 482.724C460.238 483.078 461.101 484.372 461.001 485.577L459.331 500.939C459.177 502.144 458.048 503.206 456.843 503.306L420.004 506.236C418.787 506.336 417.548 507.376 417.239 508.548L406.721 541.848C406.29 542.987 406.71 544.558 407.65 545.332L436.117 568.911C437.057 569.685 437.356 571.2 436.792 572.284L429.338 585.81C428.73 586.861 427.281 587.414 426.12 587.038L390.939 575.646C389.778 575.27 388.23 575.757 387.5 576.73L365.038 603.439C364.208 604.324 363.998 605.938 364.562 607.011L381.837 639.692C382.401 640.765 382.114 642.291 381.174 643.065L369.119 652.731C368.156 653.472 366.608 653.428 365.679 652.643L337.555 628.666C336.626 627.881 335.011 627.737 333.96 628.356L302.982 644.481C301.877 644.99 301.069 646.394 301.18 647.6L304.641 684.417C304.752 685.634 303.9 686.916 302.739 687.281L287.919 691.584C286.747 691.893 285.331 691.263 284.778 690.179L267.968 657.244C267.415 656.16 265.977 655.419 264.772 655.585C264.772 655.585 243.283 658.659 230.985 658.659C229.912 658.659 229.912 658.659 229.912 658.659C228.74 658.648 227.49 659.588 227.136 660.75L216.242 696.085C215.888 697.246 214.595 698.109 213.389 698.009L198.027 696.339C196.822 696.184 195.76 695.056 195.661 693.851L192.73 657.011C192.63 655.795 191.591 654.556 190.418 654.247L157.118 643.729C155.979 643.298 154.408 643.718 153.634 644.658L130.055 673.125C129.281 674.065 127.766 674.364 126.682 673.8L113.178 666.335C112.128 665.726 111.575 664.278 111.951 663.116L123.353 627.947C123.729 626.786 123.243 625.237 122.269 624.507L95.5605 602.045C94.6757 601.216 93.061 601.006 91.9882 601.57L59.3073 618.845C58.2345 619.409 56.7083 619.121 55.9341 618.181L46.2681 606.126C45.5271 605.164 45.5713 603.616 46.3565 602.687L70.3337 574.562C71.1189 573.633 71.2626 572.019 70.6433 570.968L54.5185 539.99C54.0098 538.884 52.6052 538.077 51.3997 538.188L14.5824 541.649C13.3659 541.76 12.083 540.908 11.718 539.747L7.41586 524.927C7.10619 523.755 7.73656 522.339 8.82039 521.786L41.7558 504.976C42.8396 504.423 43.5806 502.985 43.4147 501.78C43.4257 501.791 40.3401 480.302 40.3401 468.004ZM230.985 638.619C326.329 638.619 403.624 561.324 403.624 465.98C403.624 370.635 326.329 293.34 230.985 293.34C135.64 293.34 58.3451 370.635 58.3451 465.98C58.3451 561.324 135.64 638.619 230.985 638.619Z" fill="white"/>
<path opacity="0.2" d="M230.983 569.167C175.095 569.167 129.788 523.861 129.788 467.972C129.788 412.084 175.095 366.777 230.983 366.777C286.872 366.777 332.178 412.084 332.178 467.972C332.178 523.861 286.872 569.167 230.983 569.167Z" fill="white"/>
</svg>
