<svg width="96" height="96" viewBox="0 0 96 96" fill="none" xmlns="http://www.w3.org/2000/svg">
<circle cx="48" cy="48" r="48" fill="#D31010"/>
<path d="M24.4354 63.8615C22.5215 65.7754 22.5215 68.8784 24.4354 70.7923L27.2077 73.5646C29.1216 75.4785 32.2246 75.4785 34.1385 73.5646L48 59.7031L61.8615 73.5646C63.7754 75.4785 66.8784 75.4785 68.7923 73.5646L71.5646 70.7923C73.4785 68.8784 73.4785 65.7754 71.5646 63.8615L57.7031 50L71.5646 36.1385C73.4785 34.2246 73.4785 31.1216 71.5646 29.2077L68.7923 26.4354C66.8784 24.5215 63.7754 24.5215 61.8615 26.4354L48 40.2969L34.1385 26.4354C32.2246 24.5215 29.1216 24.5215 27.2077 26.4354L24.4354 29.2077C22.5215 31.1216 22.5215 34.2246 24.4354 36.1385L38.2969 50L24.4354 63.8615Z" fill="#FFE7E7"/>
</svg>
