<svg width="86" height="87" viewBox="0 0 86 87" fill="none" xmlns="http://www.w3.org/2000/svg">
<g clip-path="url(#clip0)">
<path d="M85.7 84.7226C85.7 85.5086 85.063 86.1456 84.277 86.1456H1.72299C0.936988 86.1456 0.299988 85.5086 0.299988 84.7226V2.1686C0.299988 1.38261 0.936988 0.745605 1.72299 0.745605H84.276C85.062 0.745605 85.699 1.38261 85.699 2.1686V84.7226H85.7Z" fill="url(#paint0_radial)"/>
<path d="M75 43.4458C75 25.7727 60.6731 11.4458 43 11.4458C25.3269 11.4458 11 25.7727 11 43.4458C11 61.1189 25.3269 75.4458 43 75.4458C60.6731 75.4458 75 61.1189 75 43.4458Z" fill="url(#paint1_radial)"/>
<path d="M47.3591 59.2434L47.3592 61.8176C47.3592 63.5753 45.9342 65 44.1766 65H41.6305C39.8729 65 38.4481 63.5753 38.4481 61.8176L38.4481 59.2434C38.4481 57.4857 39.8729 56.0608 41.6306 56.0608L44.1766 56.0608C45.9343 56.0608 47.3591 57.4857 47.3591 59.2434Z" fill="url(#paint2_radial)"/>
<path d="M37.9438 33.5178C37.3068 35.9462 34.8218 37.3984 32.3934 36.7613C29.965 36.1243 28.5129 33.6393 29.1499 31.2109C29.5311 29.7578 30.1498 28.3688 30.9892 27.1034C32.4836 24.8502 34.6113 23.0891 37.107 22.0477C39.603 21.0062 42.3514 20.7332 45.0034 21.2646C47.6552 21.7959 50.0863 23.1066 51.9914 25.0257C53.896 26.9444 55.1894 29.3849 55.713 32.0369C56.2367 34.6887 55.9682 37.4377 54.9403 39.9377C53.9122 42.438 52.1689 44.5804 49.9259 46.0902C49.1161 46.6352 48.5815 47.0298 48.2092 47.347C47.8478 47.655 47.7343 47.8114 47.7094 47.8484L47.7077 47.8506C47.7037 47.8552 47.697 47.8627 47.6812 47.93C47.6525 48.0531 47.6084 48.3345 47.6084 48.9238C47.6084 49.2093 47.5821 49.4887 47.5317 49.7596L47.5318 50.5473C47.5318 52.3349 46.078 53.7839 44.2847 53.7839H41.6872C39.8939 53.7839 38.4403 52.3349 38.4403 50.5473L38.4403 48.9136C38.4403 48.6483 38.4723 48.3905 38.5327 48.1438C38.6076 46.3763 38.9746 44.5485 40.1611 42.781C41.3598 40.9955 43.1361 39.7012 44.8493 38.5481C45.5964 38.0452 46.1837 37.3269 46.5319 36.4803C46.8801 35.6333 46.9718 34.6994 46.7938 33.7981C46.6158 32.8969 46.1774 32.0737 45.5392 31.4307C44.9013 30.7881 44.0926 30.3543 43.2172 30.1789C42.342 30.0035 41.4345 30.0932 40.608 30.4381C39.7811 30.7831 39.069 31.3696 38.5655 32.1287C38.2827 32.555 38.0732 33.0246 37.9438 33.5178Z" fill="url(#paint3_radial)"/>
</g>
<defs>
<radialGradient id="paint0_radial" cx="0" cy="0" r="1" gradientUnits="userSpaceOnUse" gradientTransform="translate(43 -13.5) rotate(90) scale(110)">
<stop stop-color="#76CEFF"/>
<stop offset="1" stop-color="#00A3FF"/>
</radialGradient>
<radialGradient id="paint1_radial" cx="0" cy="0" r="1" gradientUnits="userSpaceOnUse" gradientTransform="translate(43 3.20337) rotate(90) scale(85.8182)">
<stop stop-color="#3E3E3E"/>
<stop offset="1" stop-color="#121212"/>
</radialGradient>
<radialGradient id="paint2_radial" cx="0" cy="0" r="1" gradientUnits="userSpaceOnUse" gradientTransform="translate(42.4869 -0.499997) rotate(90) scale(90 55.1738)">
<stop stop-color="#76CEFF"/>
<stop offset="1" stop-color="#00A3FF"/>
</radialGradient>
<radialGradient id="paint3_radial" cx="0" cy="0" r="1" gradientUnits="userSpaceOnUse" gradientTransform="translate(42.4869 -0.499997) rotate(90) scale(90 55.1738)">
<stop stop-color="#76CEFF"/>
<stop offset="1" stop-color="#00A3FF"/>
</radialGradient>
<clipPath id="clip0">
<rect y="0.445801" width="86" height="86" fill="white"/>
</clipPath>
</defs>
</svg>
