<svg width="36" height="36" viewBox="0 0 36 36" fill="none" xmlns="http://www.w3.org/2000/svg">
<circle opacity="0.5" cx="18" cy="18" r="12" fill="#00C2FF"/>
<path fill-rule="evenodd" clip-rule="evenodd" d="M16.0862 10.3815C17 10.0022 18.0055 9.90292 18.9757 10.0963C19.9458 10.2897 20.8367 10.767 21.5359 11.4677C22.2351 12.1684 22.7111 13.061 22.904 14.0326C23.0968 15.0042 22.9978 16.0113 22.6195 16.9266C22.2412 17.8419 21.6005 18.6244 20.7783 19.175C20.6454 19.264 20.4999 19.3522 20.3489 19.4438C19.5108 19.9521 18.5 20.565 18.5 22C18.5 22.2761 18.2761 22.5 18 22.5C17.7239 22.5 17.5 22.2761 17.5 22C17.5 19.9406 19.1012 19.0054 19.9178 18.5285C20.0391 18.4576 20.143 18.3969 20.2219 18.3441C20.8796 17.9036 21.3925 17.2775 21.6954 16.5446C21.9983 15.8118 22.0775 15.0054 21.9231 14.2273C21.7687 13.4493 21.3875 12.7348 20.828 12.1741C20.2686 11.6134 19.5559 11.2316 18.7802 11.077C18.0044 10.9224 17.2004 11.0017 16.4696 11.3051C15.7388 11.6084 15.1141 12.1222 14.6744 12.7817C14.2347 13.4411 14 14.2165 14 15.0098C14 15.2859 13.7761 15.5098 13.5 15.5098C13.2239 15.5098 13 15.2859 13 15.0098C13 14.0192 13.2931 13.0508 13.8424 12.2269C14.3916 11.4031 15.1725 10.7608 16.0862 10.3815Z" fill="white"/>
<circle cx="18" cy="25" r="1" fill="white" fill-opacity="0.6"/>
</svg>
