<svg width="36" height="36" viewBox="0 0 36 36" fill="none" xmlns="http://www.w3.org/2000/svg">
<circle opacity="0.5" cx="18" cy="18" r="12" fill="#00BB15"/>
<path d="M17.0218 23.5748C17.0158 23.5748 17.0098 23.5748 17.0038 23.5748C16.3883 23.5688 15.7978 23.2568 15.3838 22.7183L11.6033 17.8038C11.4348 17.5848 11.4758 17.2708 11.6948 17.1028C11.9138 16.9338 12.2273 16.9758 12.3958 17.1943L16.1763 22.1093C16.4053 22.4068 16.7023 22.5723 17.0133 22.5753C17.3428 22.5653 17.6248 22.4188 17.8588 22.1258L24.6088 13.6878C24.7818 13.4723 25.0963 13.4368 25.3118 13.6098C25.5273 13.7823 25.5623 14.0968 25.3898 14.3123L18.6398 22.7503C18.2198 23.2753 17.6308 23.5748 17.0218 23.5748Z" fill="white"/>
</svg>
