<svg width="96" height="96" viewBox="0 0 96 96" fill="none" xmlns="http://www.w3.org/2000/svg">
<circle cx="48" cy="48" r="48" fill="#00A3FF"/>
<path d="M54.7342 72.891L54.7342 76.8551C54.7342 79.5618 52.5399 81.7557 49.8333 81.7557H45.9127C43.206 81.7557 41.012 79.5618 41.012 76.8551L41.012 72.8911C41.012 70.1844 43.2061 67.9903 45.9128 67.9903L49.8334 67.9903C52.54 67.9903 54.7342 70.1844 54.7342 72.891Z" fill="#F4FFFF"/>
<path d="M40.2355 33.2762C39.2546 37.0157 35.4279 39.2519 31.6884 38.2709C27.949 37.29 25.7127 33.4633 26.6937 29.7238C27.2807 27.4862 28.2335 25.3472 29.526 23.3986C31.8274 19.929 35.1038 17.2169 38.9468 15.6134C42.7904 14.0096 47.0228 13.5891 51.1066 14.4074C55.19 15.2257 58.9338 17.244 61.8674 20.1992C64.8003 23.1537 66.792 26.9119 67.5984 30.9957C68.4047 35.0792 67.9913 39.3124 66.4084 43.1622C64.8252 47.0124 62.1408 50.3115 58.6867 52.6365C57.4397 53.4758 56.6164 54.0834 56.0432 54.5719C55.4867 55.0461 55.3118 55.287 55.2736 55.344L55.2709 55.3473C55.2647 55.3543 55.2544 55.366 55.2302 55.4696C55.1859 55.6592 55.118 56.0925 55.118 57C55.118 57.4396 55.0775 57.8698 55 58.287L55 59.5C55 62.2527 52.7613 64.4841 49.9999 64.4841H45.9999C43.2385 64.4841 41.0001 62.2527 41.0001 59.5L41 56.9843C41 56.5758 41.0493 56.1787 41.1423 55.7987C41.2576 53.077 41.8228 50.2624 43.65 47.5407C45.4958 44.7912 48.2311 42.7981 50.8692 41.0223C52.0197 40.248 52.9241 39.1419 53.4602 37.8381C53.9965 36.5338 54.1376 35.0957 53.8636 33.7078C53.5896 32.3201 52.9145 31.0524 51.9316 30.0623C50.9493 29.0727 49.704 28.4047 48.356 28.1346C47.0082 27.8645 45.6108 28.0026 44.338 28.5337C43.0647 29.065 41.9682 29.9682 41.1928 31.1371C40.7574 31.7936 40.4347 32.5168 40.2355 33.2762Z" fill="#F4FFFF"/>
</svg>
